<?xml version="1.0" encoding="UTF-8"?>

<!DOCTYPE svg PUBLIC '-//W3C//DTD SVG 1.0//EN' 'http://www.w3.org/TR/2001/REC-SVG-20010904/DTD/svg10.dtd'>
<svg style="fill-opacity:1; color-rendering:auto; color-interpolation:auto; text-rendering:auto; stroke:black; stroke-linecap:square; stroke-miterlimit:10; shape-rendering:auto; stroke-opacity:1; fill:black; stroke-dasharray:none; font-weight:normal; stroke-width:1; font-family:&apos;Dialog&apos;; font-style:normal; stroke-linejoin:miter; font-size:12; stroke-dashoffset:0; image-rendering:auto;" xmlns="http://www.w3.org/2000/svg" width="1294.0" xmlns:xlink="http://www.w3.org/1999/xlink" height="716.0">
  <!--Generated by the Batik Graphics2D SVG Generator-->
  <defs id="genericDefs" />
  <g>
    <g style="fill:white; stroke:white;">
      <rect x="0" y="0" width="1897" style="stroke:none;" height="845" />
    </g>
    <g style="font-family:sans-serif; font-size:14;">
      <text xml:space="preserve" x="215" y="169" style="stroke:none;">Channel1</text>
      <text xml:space="preserve" x="435" y="169" style="stroke:none;">Channel1Failed</text>
      <text xml:space="preserve" x="211" y="289" style="stroke:none;">Channel2a</text>
      <text xml:space="preserve" x="431" y="289" style="stroke:none;">Channel2aFailed</text>
      <text xml:space="preserve" x="211" y="449" style="stroke:none;">Channel2b</text>
      <text xml:space="preserve" x="431" y="449" style="stroke:none;">Channel2bFailed</text>
      <text xml:space="preserve" x="704" y="199" style="stroke:none;">Channel1Erratic</text>
      <text xml:space="preserve" x="707" y="139" style="stroke:none;">Channel1Silent</text>
      <text xml:space="preserve" x="703" y="259" style="stroke:none;">Channel2aSilent</text>
      <text xml:space="preserve" x="705" y="339" style="stroke:none;">ErraticEnvelope</text>
      <text xml:space="preserve" x="703" y="419" style="stroke:none;">Channel2bSilent</text>
      <text xml:space="preserve" x="700" y="479" style="stroke:none;">Channel2bErratic</text>
      <text xml:space="preserve" x="1224" y="349" style="stroke:none;">SafeState</text>
      <text xml:space="preserve" x="1217" y="189" style="stroke:none;">UnsafeState</text>
      <text xml:space="preserve" x="216" y="709" style="stroke:none;">Selectors</text>
      <text xml:space="preserve" x="861" y="269" style="stroke:none;">CheckNonCatastrophicFailure</text>
      <text xml:space="preserve" x="889" y="349" style="stroke:none;">CheckChannel1MRM</text>
      <text xml:space="preserve" x="885" y="429" style="stroke:none;">CheckChannel2bMRM</text>
      <text xml:space="preserve" x="873" y="189" style="stroke:none;">CheckCatastrophicFailure</text>
      <text xml:space="preserve" x="327" y="569" style="stroke:none;">CCF2of3</text>
      <text xml:space="preserve" x="327" y="629" style="stroke:none;">CCF3of3</text>
      <text xml:space="preserve" x="565" y="339" style="stroke:none;">Channel1NonSilent</text>
      <text xml:space="preserve" x="303" y="174" style="stroke:none;">Channel1Failure</text>
      <text xml:space="preserve" x="299" y="294" style="stroke:none;">Channel2aFailure</text>
      <text xml:space="preserve" x="299" y="454" style="stroke:none;">Channel2bFailure</text>
      <text xml:space="preserve" x="231" y="604" style="stroke:none;">CCF</text>
      <text xml:space="preserve" x="1075" y="434" style="stroke:none;">Channel2bMRM</text>
      <text xml:space="preserve" x="1079" y="354" style="stroke:none;">Channel1MRM</text>
      <text xml:space="preserve" x="304" y="714" style="stroke:none;">SelectorsFailure</text>
      <text xml:space="preserve" x="557" y="174" style="stroke:none;">Channel1FailureType</text>
      <text xml:space="preserve" x="553" y="294" style="stroke:none;">Channel2aFailureType</text>
      <text xml:space="preserve" x="553" y="454" style="stroke:none;">Channel2bFailureType</text>
      <text xml:space="preserve" x="1073" y="274" style="stroke:none;">prebufferedMRM</text>
      <text xml:space="preserve" x="1064" y="194" style="stroke:none;">CatastrophicFailure</text>
      <line x1="355" x2="466" y1="145" style="fill:none;" y2="145" />
      <polygon style="stroke:none;" points=" 475 145 466 141 466 149 475 145" />
      <line x1="475" x2="466" y1="145" style="fill:none;" y2="145" />
      <line x1="355" x2="466" y1="265" style="fill:none;" y2="265" />
      <polygon style="stroke:none;" points=" 475 265 466 261 466 269 475 265" />
      <line x1="475" x2="466" y1="265" style="fill:none;" y2="265" />
      <line x1="355" x2="466" y1="425" style="fill:none;" y2="425" />
      <polygon style="stroke:none;" points=" 475 425 466 421 466 429 475 425" />
      <line x1="475" x2="466" y1="425" style="fill:none;" y2="425" />
      <line x1="625" x2="735" y1="151" style="fill:none;" y2="173" />
      <polygon style="stroke:none;" points=" 745 174 737 169 735 176 745 174" />
      <line x1="745" x2="735" y1="174" style="fill:none;" y2="173" />
      <line x1="625" x2="735" y1="139" style="fill:none;" y2="117" />
      <polygon style="stroke:none;" points=" 745 116 735 114 737 121 745 116" />
      <line x1="745" x2="735" y1="116" style="fill:none;" y2="117" />
      <line x1="625" x2="735" y1="259" style="fill:none;" y2="237" />
      <polygon style="stroke:none;" points=" 745 236 735 234 737 241 745 236" />
      <line x1="745" x2="735" y1="236" style="fill:none;" y2="237" />
      <line x1="625" x2="755" y1="315" style="fill:none;" y2="315" />
      <line x1="625" x2="735" y1="419" style="fill:none;" y2="397" />
      <polygon style="stroke:none;" points=" 745 396 735 394 737 401 745 396" />
      <line x1="745" x2="735" y1="396" style="fill:none;" y2="397" />
      <line x1="625" x2="735" y1="431" style="fill:none;" y2="453" />
      <polygon style="stroke:none;" points=" 745 454 737 449 735 456 745 454" />
      <line x1="745" x2="735" y1="454" style="fill:none;" y2="453" />
      <line x1="1125" x2="1235" y1="405" style="fill:none;" y2="337" />
      <polygon style="stroke:none;" points=" 1245 331 1235 333 1239 339 1245 331" />
      <line x1="1245" x2="1235" y1="331" style="fill:none;" y2="337" />
      <line x1="1125" x2="1236" y1="325" style="fill:none;" y2="325" />
      <polygon style="stroke:none;" points=" 1245 325 1236 321 1236 329 1245 325" />
      <line x1="1245" x2="1236" y1="325" style="fill:none;" y2="325" />
      <line x1="1125" x2="1235" y1="251" style="fill:none;" y2="315" />
      <polygon style="stroke:none;" points=" 1245 320 1239 312 1235 319 1245 320" />
      <line x1="1245" x2="1235" y1="320" style="fill:none;" y2="315" />
      <line x1="1125" x2="1235" y1="239" style="fill:none;" y2="175" />
      <polygon style="stroke:none;" points=" 1245 170 1235 171 1239 178 1245 170" />
      <line x1="1245" x2="1235" y1="170" style="fill:none;" y2="175" />
      <line x1="1125" x2="1236" y1="165" style="fill:none;" y2="165" />
      <polygon style="stroke:none;" points=" 1245 165 1236 161 1236 169 1245 165" />
      <line x1="1245" x2="1236" y1="165" style="fill:none;" y2="165" />
      <line x1="245" x2="355" y1="569" style="fill:none;" y2="545" />
      <line x1="245" x2="355" y1="581" style="fill:none;" y2="605" />
      <line x1="625" x2="625" y1="271" style="fill:none;" y2="315" />
      <line x1="245" x2="343" y1="145" style="fill:none;" y2="145" />
      <polygon style="stroke:none;" points=" 352 145 343 141 343 149 352 145" />
      <line x1="352" x2="343" y1="145" style="fill:none;" y2="145" />
      <line x1="245" x2="343" y1="265" style="fill:none;" y2="265" />
      <polygon style="stroke:none;" points=" 352 265 343 261 343 269 352 265" />
      <line x1="352" x2="343" y1="265" style="fill:none;" y2="265" />
      <line x1="245" x2="343" y1="425" style="fill:none;" y2="425" />
      <polygon style="stroke:none;" points=" 352 425 343 421 343 429 352 425" />
      <line x1="352" x2="343" y1="425" style="fill:none;" y2="425" />
      <line x1="955" x2="1125" y1="405" style="fill:none;" y2="405" />
      <line x1="955" x2="1125" y1="325" style="fill:none;" y2="325" />
      <line x1="245" x2="343" y1="685" style="fill:none;" y2="685" />
      <polygon style="stroke:none;" points=" 352 685 343 681 343 689 352 685" />
      <line x1="352" x2="343" y1="685" style="fill:none;" y2="685" />
      <line x1="485" x2="612" y1="145" style="fill:none;" y2="145" />
      <polygon style="stroke:none;" points=" 621 145 612 141 612 149 621 145" />
      <line x1="621" x2="612" y1="145" style="fill:none;" y2="145" />
      <line x1="485" x2="612" y1="265" style="fill:none;" y2="265" />
      <polygon style="stroke:none;" points=" 621 265 612 261 612 269 621 265" />
      <line x1="621" x2="612" y1="265" style="fill:none;" y2="265" />
      <line x1="485" x2="612" y1="425" style="fill:none;" y2="425" />
      <polygon style="stroke:none;" points=" 621 425 612 421 612 429 621 425" />
      <line x1="621" x2="612" y1="425" style="fill:none;" y2="425" />
      <line x1="955" x2="1125" y1="245" style="fill:none;" y2="245" />
      <line x1="955" x2="1125" y1="165" style="fill:none;" y2="165" />
      <circle style="fill:blue; stroke:none;" r="9.5" cx="244.5" cy="144.5" />
      <circle style="fill:blue; stroke:none;" r="9.5" cx="484.5" cy="144.5" />
      <circle style="fill:blue; stroke:none;" r="9.5" cx="244.5" cy="264.5" />
      <circle style="fill:blue; stroke:none;" r="9.5" cx="484.5" cy="264.5" />
      <circle style="fill:blue; stroke:none;" r="9.5" cx="244.5" cy="424.5" />
      <circle style="fill:blue; stroke:none;" r="9.5" cx="484.5" cy="424.5" />
      <circle style="fill:blue; stroke:none;" r="9.5" cx="754.5" cy="174.5" />
      <circle style="fill:blue; stroke:none;" r="9.5" cx="754.5" cy="114.5" />
      <circle style="fill:blue; stroke:none;" r="9.5" cx="754.5" cy="234.5" />
      <circle style="fill:blue; stroke:none;" r="9.5" cx="754.5" cy="314.5" />
      <circle style="fill:blue; stroke:none;" r="9.5" cx="754.5" cy="394.5" />
      <circle style="fill:blue; stroke:none;" r="9.5" cx="754.5" cy="454.5" />
      <circle style="fill:blue; stroke:none;" r="9.5" cx="1254.5" cy="324.5" />
      <circle style="fill:blue; stroke:none;" r="9.5" cx="1254.5" cy="164.5" />
      <circle style="fill:blue; stroke:none;" r="9.5" cx="244.5" cy="684.5" />
      <polygon style="fill:red; stroke:none;" points=" 945 245 965 235 965 255" />
      <polygon style="fill:red; stroke:none;" points=" 945 325 965 315 965 335" />
      <polygon style="fill:red; stroke:none;" points=" 945 405 965 395 965 415" />
      <polygon style="fill:red; stroke:none;" points=" 945 165 965 155 965 175" />
      <polygon style="stroke:none;" points=" 365 545 345 535 345 555" />
      <polygon style="stroke:none;" points=" 365 605 345 595 345 615" />
      <polygon style="stroke:none;" points=" 635 315 615 305 615 325" />
      <rect x="352" y="130" width="6" style="fill:blue; stroke:none;" rx="3" ry="3" height="30" />
      <rect x="352" y="250" width="6" style="fill:blue; stroke:none;" rx="3" ry="3" height="30" />
      <rect x="352" y="410" width="6" style="fill:blue; stroke:none;" rx="3" ry="3" height="30" />
      <rect x="239" y="560" width="6" style="fill:blue; stroke:none;" rx="3" ry="3" height="30" />
      <circle style="fill:blue; stroke:none;" r="3" cx="248" cy="569" />
      <circle style="fill:blue; stroke:none;" r="3" cx="248" cy="581" />
      <rect x="1122" y="390" width="6" style="fill:blue; stroke:none;" rx="3" ry="3" height="30" />
      <rect x="1122" y="310" width="6" style="fill:blue; stroke:none;" rx="3" ry="3" height="30" />
      <rect x="352" y="670" width="6" style="fill:blue; stroke:none;" rx="3" ry="3" height="30" />
      <rect x="621" y="130" width="3" style="fill:blue; stroke:none;" rx="1.5" ry="1.5" height="30" />
      <circle style="fill:blue; stroke:none;" r="3" cx="627" cy="139" />
      <circle style="fill:blue; stroke:none;" r="3" cx="627" cy="151" />
      <rect x="621" y="250" width="3" style="fill:blue; stroke:none;" rx="1.5" ry="1.5" height="30" />
      <circle style="fill:blue; stroke:none;" r="3" cx="627" cy="259" />
      <circle style="fill:blue; stroke:none;" r="3" cx="627" cy="271" />
      <rect x="621" y="410" width="3" style="fill:blue; stroke:none;" rx="1.5" ry="1.5" height="30" />
      <circle style="fill:blue; stroke:none;" r="3" cx="627" cy="419" />
      <circle style="fill:blue; stroke:none;" r="3" cx="627" cy="431" />
      <rect x="1121" y="230" width="3" style="fill:blue; stroke:none;" rx="1.5" ry="1.5" height="30" />
      <circle style="fill:blue; stroke:none;" r="3" cx="1127" cy="239" />
      <circle style="fill:blue; stroke:none;" r="3" cx="1127" cy="251" />
      <rect x="1124" y="150" width="3" style="fill:blue; stroke:none;" rx="1.5" ry="1.5" height="30" />
    </g>
  </g>
</svg>
