<?xml version="1.0" encoding="UTF-8"?>

<!DOCTYPE svg PUBLIC '-//W3C//DTD SVG 1.0//EN' 'http://www.w3.org/TR/2001/REC-SVG-20010904/DTD/svg10.dtd'>
<svg style="fill-opacity:1; color-rendering:auto; color-interpolation:auto; text-rendering:auto; stroke:black; stroke-linecap:square; stroke-miterlimit:10; shape-rendering:auto; stroke-opacity:1; fill:black; stroke-dasharray:none; font-weight:normal; stroke-width:1; font-family:&apos;Dialog&apos;; font-style:normal; stroke-linejoin:miter; font-size:12; stroke-dashoffset:0; image-rendering:auto;" xmlns="http://www.w3.org/2000/svg" width="1614.0" xmlns:xlink="http://www.w3.org/1999/xlink" height="766.0">
  <!--Generated by the Batik Graphics2D SVG Generator-->
  <defs id="genericDefs" />
  <g>
    <g style="fill:white; stroke:white;">
      <rect x="0" y="0" width="1897" style="stroke:none;" height="845" />
    </g>
    <g style="font-family:sans-serif; font-size:14;">
      <text xml:space="preserve" x="215" y="169" style="stroke:none;">Channel1</text>
      <text xml:space="preserve" x="436" y="169" style="stroke:none;">Channel1Failed</text>
      <text xml:space="preserve" x="211" y="289" style="stroke:none;">Channel2a</text>
      <text xml:space="preserve" x="432" y="289" style="stroke:none;">Channel2aFailed</text>
      <text xml:space="preserve" x="211" y="449" style="stroke:none;">Channel2b</text>
      <text xml:space="preserve" x="432" y="449" style="stroke:none;">Channel2bFailed</text>
      <text xml:space="preserve" x="705" y="199" style="stroke:none;">Channel1Erratic</text>
      <text xml:space="preserve" x="708" y="139" style="stroke:none;">Channel1Silent</text>
      <text xml:space="preserve" x="704" y="259" style="stroke:none;">Channel2aSilent</text>
      <text xml:space="preserve" x="701" y="339" style="stroke:none;">Channel2aErratic</text>
      <text xml:space="preserve" x="704" y="419" style="stroke:none;">Channel2bSilent</text>
      <text xml:space="preserve" x="701" y="479" style="stroke:none;">Channel2bErratic</text>
      <text xml:space="preserve" x="1544" y="479" style="stroke:none;">SafeState</text>
      <text xml:space="preserve" x="1536" y="319" style="stroke:none;">UnsafeState</text>
      <text xml:space="preserve" x="216" y="759" style="stroke:none;">Selectors</text>
      <text xml:space="preserve" x="977" y="299" style="stroke:none;">PermissiveEnvelopeFulfilled</text>
      <text xml:space="preserve" x="967" y="369" style="stroke:none;">PermissiveEnvelopeNotFulfilled</text>
      <text xml:space="preserve" x="1181" y="399" style="stroke:none;">CheckNonCatastrophicFailure</text>
      <text xml:space="preserve" x="1209" y="479" style="stroke:none;">CheckChannel1MRM</text>
      <text xml:space="preserve" x="1205" y="559" style="stroke:none;">CheckChannel2bMRM</text>
      <text xml:space="preserve" x="1193" y="319" style="stroke:none;">CheckCatastrophicFailure</text>
      <text xml:space="preserve" x="327" y="619" style="stroke:none;">CCF2of3</text>
      <text xml:space="preserve" x="327" y="679" style="stroke:none;">CCF3of3</text>
      <text xml:space="preserve" x="565" y="339" style="stroke:none;">Channel1NonSilent</text>
      <text xml:space="preserve" x="304" y="174" style="stroke:none;">Channel1Failure</text>
      <text xml:space="preserve" x="300" y="294" style="stroke:none;">Channel2aFailure</text>
      <text xml:space="preserve" x="300" y="454" style="stroke:none;">Channel2bFailure</text>
      <text xml:space="preserve" x="231" y="654" style="stroke:none;">CCF</text>
      <text xml:space="preserve" x="1394" y="564" style="stroke:none;">Channel2bMRM</text>
      <text xml:space="preserve" x="1398" y="484" style="stroke:none;">Channel1MRM</text>
      <text xml:space="preserve" x="304" y="764" style="stroke:none;">SelectorsFailure</text>
      <text xml:space="preserve" x="559" y="174" style="stroke:none;">Channel1FailureType</text>
      <text xml:space="preserve" x="555" y="294" style="stroke:none;">Channel2aFailureType</text>
      <text xml:space="preserve" x="555" y="454" style="stroke:none;">Channel2bFailureType</text>
      <text xml:space="preserve" x="1393" y="404" style="stroke:none;">prebufferedMRM</text>
      <text xml:space="preserve" x="1385" y="324" style="stroke:none;">CatastrophicFailure</text>
      <text xml:space="preserve" x="822" y="344" style="stroke:none;">PermissiveEnvelope</text>
      <line x1="1275" x2="1445" y1="295" style="fill:none;" y2="295" />
      <line x1="1065" x2="1175" y1="275" style="fill:none;" y2="275" />
      <line x1="1175" x2="1175" y1="275" style="fill:none;" y2="295" />
      <line x1="1175" x2="1275" y1="295" style="fill:none;" y2="295" />
      <line x1="1575" x2="1575" y1="295" style="fill:none;" y2="215" />
      <line x1="1575" x2="1175" y1="215" style="fill:none;" y2="215" />
      <line x1="1175" x2="1175" y1="215" style="fill:none;" y2="295" />
      <line x1="1175" x2="1275" y1="295" style="fill:none;" y2="295" />
      <line x1="1575" x2="1575" y1="455" style="fill:none;" y2="575" />
      <line x1="1575" x2="1175" y1="575" style="fill:none;" y2="575" />
      <line x1="1175" x2="1175" y1="575" style="fill:none;" y2="295" />
      <line x1="1175" x2="1275" y1="295" style="fill:none;" y2="295" />
      <line x1="755" x2="1175" y1="235" style="fill:none;" y2="235" />
      <line x1="1175" x2="1175" y1="235" style="fill:none;" y2="295" />
      <line x1="1175" x2="1275" y1="295" style="fill:none;" y2="295" />
      <line x1="755" x2="1175" y1="115" style="fill:none;" y2="115" />
      <line x1="1175" x2="1175" y1="115" style="fill:none;" y2="295" />
      <line x1="1175" x2="1275" y1="295" style="fill:none;" y2="295" />
      <line x1="245" x2="245" y1="145" style="fill:none;" y2="215" />
      <line x1="245" x2="1175" y1="215" style="fill:none;" y2="215" />
      <line x1="1175" x2="1175" y1="215" style="fill:none;" y2="295" />
      <line x1="1175" x2="1275" y1="295" style="fill:none;" y2="295" />
      <line x1="1275" x2="1445" y1="375" style="fill:none;" y2="375" />
      <line x1="1065" x2="1175" y1="345" style="fill:none;" y2="345" />
      <line x1="1175" x2="1175" y1="345" style="fill:none;" y2="375" />
      <line x1="1175" x2="1275" y1="375" style="fill:none;" y2="375" />
      <line x1="1575" x2="1575" y1="295" style="fill:none;" y2="215" />
      <line x1="1575" x2="1175" y1="215" style="fill:none;" y2="215" />
      <line x1="1175" x2="1175" y1="215" style="fill:none;" y2="375" />
      <line x1="1175" x2="1275" y1="375" style="fill:none;" y2="375" />
      <line x1="1575" x2="1575" y1="455" style="fill:none;" y2="575" />
      <line x1="1575" x2="1175" y1="575" style="fill:none;" y2="575" />
      <line x1="1175" x2="1175" y1="575" style="fill:none;" y2="375" />
      <line x1="1175" x2="1275" y1="375" style="fill:none;" y2="375" />
      <line x1="245" x2="245" y1="735" style="fill:none;" y2="695" />
      <line x1="245" x2="1175" y1="695" style="fill:none;" y2="695" />
      <line x1="1175" x2="1175" y1="695" style="fill:none;" y2="375" />
      <line x1="1175" x2="1275" y1="375" style="fill:none;" y2="375" />
      <line x1="755" x2="1175" y1="395" style="fill:none;" y2="395" />
      <line x1="1175" x2="1175" y1="395" style="fill:none;" y2="375" />
      <line x1="1175" x2="1275" y1="375" style="fill:none;" y2="375" />
      <line x1="245" x2="245" y1="425" style="fill:none;" y2="575" />
      <line x1="245" x2="1175" y1="575" style="fill:none;" y2="575" />
      <line x1="1175" x2="1175" y1="575" style="fill:none;" y2="375" />
      <line x1="1175" x2="1275" y1="375" style="fill:none;" y2="375" />
      <line x1="245" x2="245" y1="265" style="fill:none;" y2="375" />
      <line x1="245" x2="1275" y1="375" style="fill:none;" y2="375" />
      <line x1="245" x2="245" y1="145" style="fill:none;" y2="215" />
      <line x1="245" x2="1175" y1="215" style="fill:none;" y2="215" />
      <line x1="1175" x2="1175" y1="215" style="fill:none;" y2="375" />
      <line x1="1175" x2="1275" y1="375" style="fill:none;" y2="375" />
      <line x1="1275" x2="1445" y1="535" style="fill:none;" y2="535" />
      <line x1="1575" x2="1575" y1="455" style="fill:none;" y2="575" />
      <line x1="1575" x2="1175" y1="575" style="fill:none;" y2="575" />
      <line x1="1175" x2="1175" y1="575" style="fill:none;" y2="535" />
      <line x1="1175" x2="1275" y1="535" style="fill:none;" y2="535" />
      <line x1="1575" x2="1575" y1="295" style="fill:none;" y2="215" />
      <line x1="1575" x2="1175" y1="215" style="fill:none;" y2="215" />
      <line x1="1175" x2="1175" y1="215" style="fill:none;" y2="535" />
      <line x1="1175" x2="1275" y1="535" style="fill:none;" y2="535" />
      <line x1="245" x2="245" y1="425" style="fill:none;" y2="575" />
      <line x1="245" x2="1175" y1="575" style="fill:none;" y2="575" />
      <line x1="1175" x2="1175" y1="575" style="fill:none;" y2="535" />
      <line x1="1175" x2="1275" y1="535" style="fill:none;" y2="535" />
      <line x1="245" x2="245" y1="265" style="fill:none;" y2="375" />
      <line x1="245" x2="1175" y1="375" style="fill:none;" y2="375" />
      <line x1="1175" x2="1175" y1="375" style="fill:none;" y2="535" />
      <line x1="1175" x2="1275" y1="535" style="fill:none;" y2="535" />
      <line x1="245" x2="245" y1="145" style="fill:none;" y2="215" />
      <line x1="245" x2="1175" y1="215" style="fill:none;" y2="215" />
      <line x1="1175" x2="1175" y1="215" style="fill:none;" y2="535" />
      <line x1="1175" x2="1275" y1="535" style="fill:none;" y2="535" />
      <line x1="1275" x2="1445" y1="455" style="fill:none;" y2="455" />
      <line x1="1575" x2="1575" y1="455" style="fill:none;" y2="575" />
      <line x1="1575" x2="1175" y1="575" style="fill:none;" y2="575" />
      <line x1="1175" x2="1175" y1="575" style="fill:none;" y2="455" />
      <line x1="1175" x2="1275" y1="455" style="fill:none;" y2="455" />
      <line x1="1575" x2="1575" y1="295" style="fill:none;" y2="215" />
      <line x1="1575" x2="1175" y1="215" style="fill:none;" y2="215" />
      <line x1="1175" x2="1175" y1="215" style="fill:none;" y2="455" />
      <line x1="1175" x2="1275" y1="455" style="fill:none;" y2="455" />
      <line x1="755" x2="1175" y1="455" style="fill:none;" y2="455" />
      <line x1="1175" x2="1275" y1="455" style="fill:none;" y2="455" />
      <line x1="245" x2="245" y1="425" style="fill:none;" y2="575" />
      <line x1="245" x2="1175" y1="575" style="fill:none;" y2="575" />
      <line x1="1175" x2="1175" y1="575" style="fill:none;" y2="455" />
      <line x1="1175" x2="1275" y1="455" style="fill:none;" y2="455" />
      <line x1="245" x2="245" y1="265" style="fill:none;" y2="375" />
      <line x1="245" x2="1175" y1="375" style="fill:none;" y2="375" />
      <line x1="1175" x2="1175" y1="375" style="fill:none;" y2="455" />
      <line x1="1175" x2="1275" y1="455" style="fill:none;" y2="455" />
      <line x1="245" x2="245" y1="145" style="fill:none;" y2="215" />
      <line x1="245" x2="1175" y1="215" style="fill:none;" y2="215" />
      <line x1="1175" x2="1175" y1="215" style="fill:none;" y2="455" />
      <line x1="1175" x2="1275" y1="455" style="fill:none;" y2="455" />
      <line x1="355" x2="285" y1="595" style="fill:none;" y2="595" />
      <line x1="285" x2="285" y1="595" style="fill:none;" y2="145" />
      <line x1="285" x2="245" y1="145" style="fill:none;" y2="145" />
      <line x1="355" x2="285" y1="655" style="fill:none;" y2="655" />
      <line x1="285" x2="285" y1="655" style="fill:none;" y2="145" />
      <line x1="285" x2="245" y1="145" style="fill:none;" y2="145" />
      <line x1="355" x2="466" y1="145" style="fill:none;" y2="145" />
      <polygon style="stroke:none;" points=" 475 145 466 141 466 149 475 145" />
      <line x1="475" x2="466" y1="145" style="fill:none;" y2="145" />
      <line x1="355" x2="425" y1="655" style="fill:none;" y2="655" />
      <line x1="425" x2="425" y1="655" style="fill:none;" y2="145" />
      <line x1="425" x2="485" y1="145" style="fill:none;" y2="145" />
      <line x1="355" x2="425" y1="595" style="fill:none;" y2="595" />
      <line x1="425" x2="425" y1="595" style="fill:none;" y2="145" />
      <line x1="425" x2="485" y1="145" style="fill:none;" y2="145" />
      <line x1="355" x2="285" y1="595" style="fill:none;" y2="595" />
      <line x1="285" x2="285" y1="595" style="fill:none;" y2="265" />
      <line x1="285" x2="245" y1="265" style="fill:none;" y2="265" />
      <line x1="355" x2="466" y1="265" style="fill:none;" y2="265" />
      <polygon style="stroke:none;" points=" 475 265 466 261 466 269 475 265" />
      <line x1="475" x2="466" y1="265" style="fill:none;" y2="265" />
      <line x1="355" x2="425" y1="595" style="fill:none;" y2="595" />
      <line x1="425" x2="425" y1="595" style="fill:none;" y2="265" />
      <line x1="425" x2="485" y1="265" style="fill:none;" y2="265" />
      <line x1="355" x2="285" y1="655" style="fill:none;" y2="655" />
      <line x1="285" x2="285" y1="655" style="fill:none;" y2="425" />
      <line x1="285" x2="245" y1="425" style="fill:none;" y2="425" />
      <line x1="355" x2="466" y1="425" style="fill:none;" y2="425" />
      <polygon style="stroke:none;" points=" 475 425 466 421 466 429 475 425" />
      <line x1="475" x2="466" y1="425" style="fill:none;" y2="425" />
      <line x1="355" x2="425" y1="655" style="fill:none;" y2="655" />
      <line x1="425" x2="425" y1="655" style="fill:none;" y2="425" />
      <line x1="425" x2="485" y1="425" style="fill:none;" y2="425" />
      <line x1="625" x2="735" y1="151" style="fill:none;" y2="173" />
      <polygon style="stroke:none;" points=" 745 174 737 169 735 176 745 174" />
      <line x1="745" x2="735" y1="174" style="fill:none;" y2="173" />
      <line x1="625" x2="735" y1="139" style="fill:none;" y2="117" />
      <polygon style="stroke:none;" points=" 745 116 735 114 737 121 745 116" />
      <line x1="745" x2="735" y1="116" style="fill:none;" y2="117" />
      <line x1="625" x2="735" y1="259" style="fill:none;" y2="237" />
      <polygon style="stroke:none;" points=" 745 236 735 234 737 241 745 236" />
      <line x1="745" x2="735" y1="236" style="fill:none;" y2="237" />
      <line x1="625" x2="755" y1="315" style="fill:none;" y2="315" />
      <line x1="625" x2="735" y1="419" style="fill:none;" y2="397" />
      <polygon style="stroke:none;" points=" 745 396 735 394 737 401 745 396" />
      <line x1="745" x2="735" y1="396" style="fill:none;" y2="397" />
      <line x1="625" x2="735" y1="431" style="fill:none;" y2="453" />
      <polygon style="stroke:none;" points=" 745 454 737 449 735 456 745 454" />
      <line x1="745" x2="735" y1="454" style="fill:none;" y2="453" />
      <line x1="1445" x2="1555" y1="535" style="fill:none;" y2="467" />
      <polygon style="stroke:none;" points=" 1565 461 1555 463 1559 469 1565 461" />
      <line x1="1565" x2="1555" y1="461" style="fill:none;" y2="467" />
      <line x1="1445" x2="1556" y1="455" style="fill:none;" y2="455" />
      <polygon style="stroke:none;" points=" 1565 455 1556 451 1556 459 1565 455" />
      <line x1="1565" x2="1556" y1="455" style="fill:none;" y2="455" />
      <line x1="1445" x2="1555" y1="381" style="fill:none;" y2="445" />
      <polygon style="stroke:none;" points=" 1565 450 1559 442 1555 449 1565 450" />
      <line x1="1565" x2="1555" y1="450" style="fill:none;" y2="445" />
      <line x1="1445" x2="1555" y1="369" style="fill:none;" y2="305" />
      <polygon style="stroke:none;" points=" 1565 300 1555 301 1559 308 1565 300" />
      <line x1="1565" x2="1555" y1="300" style="fill:none;" y2="305" />
      <line x1="1445" x2="1556" y1="295" style="fill:none;" y2="295" />
      <polygon style="stroke:none;" points=" 1565 295 1556 291 1556 299 1565 295" />
      <line x1="1565" x2="1556" y1="295" style="fill:none;" y2="295" />
      <line x1="885" x2="1045" y1="309" style="fill:none;" y2="277" />
      <polygon style="stroke:none;" points=" 1055 276 1045 274 1047 281 1055 276" />
      <line x1="1055" x2="1045" y1="276" style="fill:none;" y2="277" />
      <line x1="885" x2="1045" y1="321" style="fill:none;" y2="343" />
      <polygon style="stroke:none;" points=" 1055 344 1046 339 1045 347 1055 344" />
      <line x1="1055" x2="1045" y1="344" style="fill:none;" y2="343" />
      <line x1="245" x2="355" y1="619" style="fill:none;" y2="595" />
      <line x1="245" x2="355" y1="631" style="fill:none;" y2="655" />
      <line x1="625" x2="625" y1="271" style="fill:none;" y2="315" />
      <line x1="245" x2="343" y1="145" style="fill:none;" y2="145" />
      <polygon style="stroke:none;" points=" 352 145 343 141 343 149 352 145" />
      <line x1="352" x2="343" y1="145" style="fill:none;" y2="145" />
      <line x1="245" x2="343" y1="265" style="fill:none;" y2="265" />
      <polygon style="stroke:none;" points=" 352 265 343 261 343 269 352 265" />
      <line x1="352" x2="343" y1="265" style="fill:none;" y2="265" />
      <line x1="245" x2="343" y1="425" style="fill:none;" y2="425" />
      <polygon style="stroke:none;" points=" 352 425 343 421 343 429 352 425" />
      <line x1="352" x2="343" y1="425" style="fill:none;" y2="425" />
      <line x1="245" x2="343" y1="735" style="fill:none;" y2="735" />
      <polygon style="stroke:none;" points=" 352 735 343 731 343 739 352 735" />
      <line x1="352" x2="343" y1="735" style="fill:none;" y2="735" />
      <line x1="485" x2="612" y1="145" style="fill:none;" y2="145" />
      <polygon style="stroke:none;" points=" 621 145 612 141 612 149 621 145" />
      <line x1="621" x2="612" y1="145" style="fill:none;" y2="145" />
      <line x1="485" x2="612" y1="265" style="fill:none;" y2="265" />
      <polygon style="stroke:none;" points=" 621 265 612 261 612 269 621 265" />
      <line x1="621" x2="612" y1="265" style="fill:none;" y2="265" />
      <line x1="485" x2="612" y1="425" style="fill:none;" y2="425" />
      <polygon style="stroke:none;" points=" 621 425 612 421 612 429 621 425" />
      <line x1="621" x2="612" y1="425" style="fill:none;" y2="425" />
      <line x1="755" x2="872" y1="315" style="fill:none;" y2="315" />
      <polygon style="stroke:none;" points=" 881 315 872 311 872 319 881 315" />
      <line x1="881" x2="872" y1="315" style="fill:none;" y2="315" />
      <circle style="fill:blue; stroke:none;" r="9.5" cx="244.5" cy="144.5" />
      <circle style="fill:blue; stroke:none;" r="9.5" cx="484.5" cy="144.5" />
      <circle style="fill:blue; stroke:none;" r="9.5" cx="244.5" cy="264.5" />
      <circle style="fill:blue; stroke:none;" r="9.5" cx="484.5" cy="264.5" />
      <circle style="fill:blue; stroke:none;" r="9.5" cx="244.5" cy="424.5" />
      <circle style="fill:blue; stroke:none;" r="9.5" cx="484.5" cy="424.5" />
      <circle style="fill:blue; stroke:none;" r="9.5" cx="754.5" cy="174.5" />
      <circle style="fill:blue; stroke:none;" r="9.5" cx="754.5" cy="114.5" />
      <circle style="fill:blue; stroke:none;" r="9.5" cx="754.5" cy="234.5" />
      <circle style="fill:blue; stroke:none;" r="9.5" cx="754.5" cy="314.5" />
      <circle style="fill:blue; stroke:none;" r="9.5" cx="754.5" cy="394.5" />
      <circle style="fill:blue; stroke:none;" r="9.5" cx="754.5" cy="454.5" />
      <circle style="fill:blue; stroke:none;" r="9.5" cx="1574.5" cy="454.5" />
      <circle style="fill:blue; stroke:none;" r="9.5" cx="1574.5" cy="294.5" />
      <circle style="fill:blue; stroke:none;" r="9.5" cx="244.5" cy="734.5" />
      <circle style="fill:blue; stroke:none;" r="9.5" cx="1064.5" cy="274.5" />
      <circle style="fill:blue; stroke:none;" r="9.5" cx="1064.5" cy="344.5" />
      <polygon style="fill:red; stroke:none;" points=" 1265 375 1285 365 1285 385" />
      <polygon style="fill:red; stroke:none;" points=" 1265 455 1285 445 1285 465" />
      <polygon style="fill:red; stroke:none;" points=" 1265 535 1285 525 1285 545" />
      <polygon style="fill:red; stroke:none;" points=" 1265 295 1285 285 1285 305" />
      <polygon style="stroke:none;" points=" 365 595 345 585 345 605" />
      <polygon style="stroke:none;" points=" 365 655 345 645 345 665" />
      <polygon style="stroke:none;" points=" 635 315 615 305 615 325" />
      <rect x="352" y="130" width="6" style="fill:blue; stroke:none;" rx="3" ry="3" height="30" />
      <rect x="352" y="250" width="6" style="fill:blue; stroke:none;" rx="3" ry="3" height="30" />
      <rect x="352" y="410" width="6" style="fill:blue; stroke:none;" rx="3" ry="3" height="30" />
      <rect x="239" y="610" width="6" style="fill:blue; stroke:none;" rx="3" ry="3" height="30" />
      <circle style="fill:blue; stroke:none;" r="3" cx="248" cy="619" />
      <circle style="fill:blue; stroke:none;" r="3" cx="248" cy="631" />
      <rect x="1442" y="520" width="6" style="fill:blue; stroke:none;" rx="3" ry="3" height="30" />
      <rect x="1442" y="440" width="6" style="fill:blue; stroke:none;" rx="3" ry="3" height="30" />
      <rect x="352" y="720" width="6" style="fill:blue; stroke:none;" rx="3" ry="3" height="30" />
      <rect x="621" y="130" width="3" style="fill:blue; stroke:none;" rx="1.5" ry="1.5" height="30" />
      <circle style="fill:blue; stroke:none;" r="3" cx="627" cy="139" />
      <circle style="fill:blue; stroke:none;" r="3" cx="627" cy="151" />
      <rect x="621" y="250" width="3" style="fill:blue; stroke:none;" rx="1.5" ry="1.5" height="30" />
      <circle style="fill:blue; stroke:none;" r="3" cx="627" cy="259" />
      <circle style="fill:blue; stroke:none;" r="3" cx="627" cy="271" />
      <rect x="621" y="410" width="3" style="fill:blue; stroke:none;" rx="1.5" ry="1.5" height="30" />
      <circle style="fill:blue; stroke:none;" r="3" cx="627" cy="419" />
      <circle style="fill:blue; stroke:none;" r="3" cx="627" cy="431" />
      <rect x="1441" y="360" width="3" style="fill:blue; stroke:none;" rx="1.5" ry="1.5" height="30" />
      <circle style="fill:blue; stroke:none;" r="3" cx="1447" cy="369" />
      <circle style="fill:blue; stroke:none;" r="3" cx="1447" cy="381" />
      <rect x="1444" y="280" width="3" style="fill:blue; stroke:none;" rx="1.5" ry="1.5" height="30" />
      <rect x="881" y="300" width="3" style="fill:blue; stroke:none;" rx="1.5" ry="1.5" height="30" />
      <circle style="fill:blue; stroke:none;" r="3" cx="887" cy="309" />
      <circle style="fill:blue; stroke:none;" r="3" cx="887" cy="321" />
    </g>
  </g>
</svg>
