<?xml version="1.0" encoding="UTF-8"?>

<!DOCTYPE svg PUBLIC '-//W3C//DTD SVG 1.0//EN' 'http://www.w3.org/TR/2001/REC-SVG-20010904/DTD/svg10.dtd'>
<svg style="fill-opacity:1; color-rendering:auto; color-interpolation:auto; text-rendering:auto; stroke:black; stroke-linecap:square; stroke-miterlimit:10; shape-rendering:auto; stroke-opacity:1; fill:black; stroke-dasharray:none; font-weight:normal; stroke-width:1; font-family:&apos;Dialog&apos;; font-style:normal; stroke-linejoin:miter; font-size:12; stroke-dashoffset:0; image-rendering:auto;" xmlns="http://www.w3.org/2000/svg" width="1624.0" xmlns:xlink="http://www.w3.org/1999/xlink" height="659.0">
  <!--Generated by the Batik Graphics2D SVG Generator-->
  <defs id="genericDefs" />
  <g>
    <g style="fill:white; stroke:white;">
      <rect x="0" y="0" width="2964" style="stroke:none;" height="1320" />
    </g>
    <g style="font-family:sans-serif; font-size:14;">
      <text xml:space="preserve" x="402" y="219" style="stroke:none;">NoMajority</text>
      <text xml:space="preserve" x="155" y="289" style="stroke:none;">Channel1</text>
      <text xml:space="preserve" x="385" y="289" style="stroke:none;">Channel1Failed</text>
      <text xml:space="preserve" x="718" y="319" style="stroke:none;">SilentChannels</text>
      <text xml:space="preserve" x="155" y="359" style="stroke:none;">Channel2</text>
      <text xml:space="preserve" x="385" y="359" style="stroke:none;">Channel2Failed</text>
      <text xml:space="preserve" x="715" y="399" style="stroke:none;">ErraticChannels</text>
      <text xml:space="preserve" x="155" y="439" style="stroke:none;">Channel3</text>
      <text xml:space="preserve" x="385" y="439" style="stroke:none;">Channel3Failed</text>
      <text xml:space="preserve" x="1090" y="429" style="stroke:none;">NoBadMajority</text>
      <text xml:space="preserve" x="1098" y="359" style="stroke:none;">BadMajority</text>
      <text xml:space="preserve" x="165" y="629" style="stroke:none;">Voters</text>
      <text xml:space="preserve" x="1554" y="319" style="stroke:none;">SafeState</text>
      <text xml:space="preserve" x="1547" y="219" style="stroke:none;">UnsafeState</text>
      <text xml:space="preserve" x="827" y="399" style="stroke:none;">CheckMajorityErratics</text>
      <text xml:space="preserve" x="1203" y="219" style="stroke:none;">CheckCatastrophicFailure</text>
      <text xml:space="preserve" x="1191" y="279" style="stroke:none;">CheckNonCatastrophicFailure</text>
      <text xml:space="preserve" x="267" y="499" style="stroke:none;">CCF2of3</text>
      <text xml:space="preserve" x="267" y="569" style="stroke:none;">CCF3of3</text>
      <text xml:space="preserve" x="253" y="219" style="stroke:none;">InexactVoting</text>
      <text xml:space="preserve" x="141" y="224" style="stroke:none;">Disagreement</text>
      <text xml:space="preserve" x="243" y="294" style="stroke:none;">Channel1Failure</text>
      <text xml:space="preserve" x="243" y="364" style="stroke:none;">Channel2Failure</text>
      <text xml:space="preserve" x="243" y="444" style="stroke:none;">Channel3Failure</text>
      <text xml:space="preserve" x="171" y="544" style="stroke:none;">CCF</text>
      <text xml:space="preserve" x="253" y="634" style="stroke:none;">VotersFailure</text>
      <text xml:space="preserve" x="507" y="294" style="stroke:none;">Channel1FailureType</text>
      <text xml:space="preserve" x="507" y="364" style="stroke:none;">Channel2FailureType</text>
      <text xml:space="preserve" x="507" y="444" style="stroke:none;">Channel3FailureType</text>
      <text xml:space="preserve" x="982" y="404" style="stroke:none;">ErraticResults</text>
      <text xml:space="preserve" x="1384" y="224" style="stroke:none;">CatastrophicFailure</text>
      <text xml:space="preserve" x="1393" y="284" style="stroke:none;">prebufferedMRM</text>
      <line x1="295" x2="435" y1="195" style="fill:none;" y2="195" />
      <line x1="295" x2="225" y1="475" style="fill:none;" y2="475" />
      <line x1="225" x2="225" y1="475" style="fill:none;" y2="265" />
      <line x1="225" x2="185" y1="265" style="fill:none;" y2="265" />
      <line x1="295" x2="225" y1="545" style="fill:none;" y2="545" />
      <line x1="225" x2="225" y1="545" style="fill:none;" y2="265" />
      <line x1="225" x2="185" y1="265" style="fill:none;" y2="265" />
      <line x1="295" x2="416" y1="265" style="fill:none;" y2="265" />
      <polygon style="stroke:none;" points=" 425 265 416 261 416 269 425 265" />
      <line x1="425" x2="416" y1="265" style="fill:none;" y2="265" />
      <line x1="295" x2="365" y1="475" style="fill:none;" y2="475" />
      <line x1="365" x2="365" y1="475" style="fill:none;" y2="265" />
      <line x1="365" x2="435" y1="265" style="fill:none;" y2="265" />
      <line x1="295" x2="365" y1="545" style="fill:none;" y2="545" />
      <line x1="365" x2="365" y1="545" style="fill:none;" y2="265" />
      <line x1="365" x2="435" y1="265" style="fill:none;" y2="265" />
      <line x1="575" x2="745" y1="259" style="fill:none;" y2="293" />
      <polygon style="stroke:none;" points=" 755 294 747 289 745 296 755 294" />
      <line x1="755" x2="745" y1="294" style="fill:none;" y2="293" />
      <line x1="575" x2="745" y1="329" style="fill:none;" y2="297" />
      <polygon style="stroke:none;" points=" 755 296 745 294 747 301 755 296" />
      <line x1="755" x2="745" y1="296" style="fill:none;" y2="297" />
      <line x1="575" x2="745" y1="409" style="fill:none;" y2="307" />
      <polygon style="stroke:none;" points=" 755 301 745 302 749 309 755 301" />
      <line x1="755" x2="745" y1="301" style="fill:none;" y2="307" />
      <line x1="295" x2="225" y1="475" style="fill:none;" y2="475" />
      <line x1="225" x2="225" y1="475" style="fill:none;" y2="335" />
      <line x1="225" x2="185" y1="335" style="fill:none;" y2="335" />
      <line x1="295" x2="225" y1="545" style="fill:none;" y2="545" />
      <line x1="225" x2="225" y1="545" style="fill:none;" y2="335" />
      <line x1="225" x2="185" y1="335" style="fill:none;" y2="335" />
      <line x1="295" x2="416" y1="335" style="fill:none;" y2="335" />
      <polygon style="stroke:none;" points=" 425 335 416 331 416 339 425 335" />
      <line x1="425" x2="416" y1="335" style="fill:none;" y2="335" />
      <line x1="295" x2="365" y1="475" style="fill:none;" y2="475" />
      <line x1="365" x2="365" y1="475" style="fill:none;" y2="335" />
      <line x1="365" x2="435" y1="335" style="fill:none;" y2="335" />
      <line x1="295" x2="365" y1="545" style="fill:none;" y2="545" />
      <line x1="365" x2="365" y1="545" style="fill:none;" y2="335" />
      <line x1="365" x2="435" y1="335" style="fill:none;" y2="335" />
      <line x1="575" x2="745" y1="271" style="fill:none;" y2="365" />
      <polygon style="stroke:none;" points=" 755 370 749 362 745 369 755 370" />
      <line x1="755" x2="745" y1="370" style="fill:none;" y2="365" />
      <line x1="575" x2="745" y1="341" style="fill:none;" y2="373" />
      <polygon style="stroke:none;" points=" 755 374 747 369 745 376 755 374" />
      <line x1="755" x2="745" y1="374" style="fill:none;" y2="373" />
      <line x1="575" x2="745" y1="421" style="fill:none;" y2="379" />
      <polygon style="stroke:none;" points=" 755 377 745 375 747 383 755 377" />
      <line x1="755" x2="745" y1="377" style="fill:none;" y2="379" />
      <line x1="295" x2="225" y1="545" style="fill:none;" y2="545" />
      <line x1="225" x2="225" y1="545" style="fill:none;" y2="415" />
      <line x1="225" x2="185" y1="415" style="fill:none;" y2="415" />
      <line x1="295" x2="416" y1="415" style="fill:none;" y2="415" />
      <polygon style="stroke:none;" points=" 425 415 416 411 416 419 425 415" />
      <line x1="425" x2="416" y1="415" style="fill:none;" y2="415" />
      <line x1="295" x2="365" y1="545" style="fill:none;" y2="545" />
      <line x1="365" x2="365" y1="545" style="fill:none;" y2="415" />
      <line x1="365" x2="435" y1="415" style="fill:none;" y2="415" />
      <line x1="1025" x2="1115" y1="381" style="fill:none;" y2="401" />
      <polygon style="stroke:none;" points=" 1125 403 1117 397 1115 405 1125 403" />
      <line x1="1125" x2="1115" y1="403" style="fill:none;" y2="401" />
      <line x1="1025" x2="1115" y1="369" style="fill:none;" y2="341" />
      <polygon style="stroke:none;" points=" 1125 338 1115 337 1117 344 1125 338" />
      <line x1="1125" x2="1115" y1="338" style="fill:none;" y2="341" />
      <line x1="1445" x2="1565" y1="261" style="fill:none;" y2="291" />
      <polygon style="stroke:none;" points=" 1575 293 1567 287 1565 295 1575 293" />
      <line x1="1575" x2="1565" y1="293" style="fill:none;" y2="291" />
      <line x1="1445" x2="1566" y1="195" style="fill:none;" y2="195" />
      <polygon style="stroke:none;" points=" 1575 195 1566 191 1566 199 1575 195" />
      <line x1="1575" x2="1566" y1="195" style="fill:none;" y2="195" />
      <line x1="1445" x2="1565" y1="249" style="fill:none;" y2="201" />
      <polygon style="stroke:none;" points=" 1575 198 1565 198 1568 205 1575 198" />
      <line x1="1575" x2="1565" y1="198" style="fill:none;" y2="201" />
      <line x1="765" x2="895" y1="375" style="fill:none;" y2="375" />
      <line x1="765" x2="1185" y1="295" style="fill:none;" y2="295" />
      <line x1="1185" x2="1185" y1="295" style="fill:none;" y2="195" />
      <line x1="1185" x2="1285" y1="195" style="fill:none;" y2="195" />
      <line x1="1135" x2="1185" y1="405" style="fill:none;" y2="405" />
      <line x1="1185" x2="1185" y1="405" style="fill:none;" y2="195" />
      <line x1="1185" x2="1285" y1="195" style="fill:none;" y2="195" />
      <line x1="1135" x2="1185" y1="335" style="fill:none;" y2="335" />
      <line x1="1185" x2="1185" y1="335" style="fill:none;" y2="195" />
      <line x1="1185" x2="1285" y1="195" style="fill:none;" y2="195" />
      <line x1="1585" x2="1585" y1="195" style="fill:none;" y2="155" />
      <line x1="1585" x2="1185" y1="155" style="fill:none;" y2="155" />
      <line x1="1185" x2="1185" y1="155" style="fill:none;" y2="195" />
      <line x1="1185" x2="1285" y1="195" style="fill:none;" y2="195" />
      <line x1="1585" x2="1585" y1="295" style="fill:none;" y2="345" />
      <line x1="1585" x2="1185" y1="345" style="fill:none;" y2="345" />
      <line x1="1185" x2="1185" y1="345" style="fill:none;" y2="195" />
      <line x1="1185" x2="1285" y1="195" style="fill:none;" y2="195" />
      <line x1="435" x2="1185" y1="195" style="fill:none;" y2="195" />
      <line x1="1185" x2="1185" y1="195" style="fill:none;" y2="255" />
      <line x1="1185" x2="1285" y1="255" style="fill:none;" y2="255" />
      <line x1="765" x2="1185" y1="295" style="fill:none;" y2="295" />
      <line x1="1185" x2="1185" y1="295" style="fill:none;" y2="255" />
      <line x1="1185" x2="1285" y1="255" style="fill:none;" y2="255" />
      <line x1="1285" x2="1285" y1="255" style="fill:none;" y2="255" />
      <line x1="1135" x2="1185" y1="405" style="fill:none;" y2="405" />
      <line x1="1185" x2="1185" y1="405" style="fill:none;" y2="255" />
      <line x1="1185" x2="1285" y1="255" style="fill:none;" y2="255" />
      <line x1="1135" x2="1185" y1="335" style="fill:none;" y2="335" />
      <line x1="1185" x2="1185" y1="335" style="fill:none;" y2="255" />
      <line x1="1185" x2="1285" y1="255" style="fill:none;" y2="255" />
      <line x1="185" x2="185" y1="605" style="fill:none;" y2="655" />
      <line x1="185" x2="1185" y1="655" style="fill:none;" y2="655" />
      <line x1="1185" x2="1185" y1="655" style="fill:none;" y2="255" />
      <line x1="1185" x2="1285" y1="255" style="fill:none;" y2="255" />
      <line x1="1585" x2="1585" y1="195" style="fill:none;" y2="155" />
      <line x1="1585" x2="1185" y1="155" style="fill:none;" y2="155" />
      <line x1="1185" x2="1185" y1="155" style="fill:none;" y2="255" />
      <line x1="1185" x2="1285" y1="255" style="fill:none;" y2="255" />
      <line x1="1585" x2="1585" y1="295" style="fill:none;" y2="345" />
      <line x1="1585" x2="1185" y1="345" style="fill:none;" y2="345" />
      <line x1="1185" x2="1185" y1="345" style="fill:none;" y2="255" />
      <line x1="1185" x2="1285" y1="255" style="fill:none;" y2="255" />
      <line x1="185" x2="295" y1="509" style="fill:none;" y2="475" />
      <line x1="185" x2="295" y1="521" style="fill:none;" y2="545" />
      <line x1="185" x2="295" y1="195" style="fill:none;" y2="195" />
      <line x1="185" x2="283" y1="265" style="fill:none;" y2="265" />
      <polygon style="stroke:none;" points=" 292 265 283 261 283 269 292 265" />
      <line x1="292" x2="283" y1="265" style="fill:none;" y2="265" />
      <line x1="185" x2="283" y1="335" style="fill:none;" y2="335" />
      <polygon style="stroke:none;" points=" 292 335 283 331 283 339 292 335" />
      <line x1="292" x2="283" y1="335" style="fill:none;" y2="335" />
      <line x1="185" x2="283" y1="415" style="fill:none;" y2="415" />
      <polygon style="stroke:none;" points=" 292 415 283 411 283 419 292 415" />
      <line x1="292" x2="283" y1="415" style="fill:none;" y2="415" />
      <line x1="185" x2="283" y1="605" style="fill:none;" y2="605" />
      <polygon style="stroke:none;" points=" 292 605 283 601 283 609 292 605" />
      <line x1="292" x2="283" y1="605" style="fill:none;" y2="605" />
      <line x1="435" x2="562" y1="265" style="fill:none;" y2="265" />
      <polygon style="stroke:none;" points=" 571 265 562 261 562 269 571 265" />
      <line x1="571" x2="562" y1="265" style="fill:none;" y2="265" />
      <line x1="435" x2="562" y1="335" style="fill:none;" y2="335" />
      <polygon style="stroke:none;" points=" 571 335 562 331 562 339 571 335" />
      <line x1="571" x2="562" y1="335" style="fill:none;" y2="335" />
      <line x1="435" x2="562" y1="415" style="fill:none;" y2="415" />
      <polygon style="stroke:none;" points=" 571 415 562 411 562 419 571 415" />
      <line x1="571" x2="562" y1="415" style="fill:none;" y2="415" />
      <line x1="895" x2="1025" y1="375" style="fill:none;" y2="375" />
      <line x1="1285" x2="1445" y1="195" style="fill:none;" y2="195" />
      <line x1="1285" x2="1445" y1="255" style="fill:none;" y2="255" />
      <circle style="fill:blue; stroke:none;" r="9.5" cx="434.5" cy="194.5" />
      <circle style="fill:blue; stroke:none;" r="9.5" cx="184.5" cy="264.5" />
      <circle style="fill:blue; stroke:none;" r="9.5" cx="434.5" cy="264.5" />
      <circle style="fill:blue; stroke:none;" r="9.5" cx="764.5" cy="294.5" />
      <circle style="fill:blue; stroke:none;" r="9.5" cx="184.5" cy="334.5" />
      <circle style="fill:blue; stroke:none;" r="9.5" cx="434.5" cy="334.5" />
      <circle style="fill:blue; stroke:none;" r="9.5" cx="764.5" cy="374.5" />
      <circle style="fill:blue; stroke:none;" r="9.5" cx="184.5" cy="414.5" />
      <circle style="fill:blue; stroke:none;" r="9.5" cx="434.5" cy="414.5" />
      <circle style="fill:blue; stroke:none;" r="9.5" cx="1134.5" cy="404.5" />
      <circle style="fill:blue; stroke:none;" r="9.5" cx="1134.5" cy="334.5" />
      <circle style="fill:blue; stroke:none;" r="9.5" cx="184.5" cy="604.5" />
      <circle style="fill:blue; stroke:none;" r="9.5" cx="1584.5" cy="294.5" />
      <circle style="fill:blue; stroke:none;" r="9.5" cx="1584.5" cy="194.5" />
      <polygon style="fill:red; stroke:none;" points=" 885 375 905 365 905 385" />
      <polygon style="fill:red; stroke:none;" points=" 1275 195 1295 185 1295 205" />
      <polygon style="fill:red; stroke:none;" points=" 1275 255 1295 245 1295 265" />
      <polygon style="stroke:none;" points=" 305 475 285 465 285 485" />
      <polygon style="stroke:none;" points=" 305 545 285 535 285 555" />
      <polygon style="stroke:none;" points=" 305 195 285 185 285 205" />
      <rect x="182" y="180" width="6" style="fill:blue; stroke:none;" rx="3" ry="3" height="30" />
      <rect x="292" y="250" width="6" style="fill:blue; stroke:none;" rx="3" ry="3" height="30" />
      <rect x="292" y="320" width="6" style="fill:blue; stroke:none;" rx="3" ry="3" height="30" />
      <rect x="292" y="400" width="6" style="fill:blue; stroke:none;" rx="3" ry="3" height="30" />
      <rect x="179" y="500" width="6" style="fill:blue; stroke:none;" rx="3" ry="3" height="30" />
      <circle style="fill:blue; stroke:none;" r="3" cx="188" cy="509" />
      <circle style="fill:blue; stroke:none;" r="3" cx="188" cy="521" />
      <rect x="292" y="590" width="6" style="fill:blue; stroke:none;" rx="3" ry="3" height="30" />
      <rect x="571" y="250" width="3" style="fill:blue; stroke:none;" rx="1.5" ry="1.5" height="30" />
      <circle style="fill:blue; stroke:none;" r="3" cx="577" cy="259" />
      <circle style="fill:blue; stroke:none;" r="3" cx="577" cy="271" />
      <rect x="571" y="320" width="3" style="fill:blue; stroke:none;" rx="1.5" ry="1.5" height="30" />
      <circle style="fill:blue; stroke:none;" r="3" cx="577" cy="329" />
      <circle style="fill:blue; stroke:none;" r="3" cx="577" cy="341" />
      <rect x="571" y="400" width="3" style="fill:blue; stroke:none;" rx="1.5" ry="1.5" height="30" />
      <circle style="fill:blue; stroke:none;" r="3" cx="577" cy="409" />
      <circle style="fill:blue; stroke:none;" r="3" cx="577" cy="421" />
      <rect x="1021" y="360" width="3" style="fill:blue; stroke:none;" rx="1.5" ry="1.5" height="30" />
      <circle style="fill:blue; stroke:none;" r="3" cx="1027" cy="369" />
      <circle style="fill:blue; stroke:none;" r="3" cx="1027" cy="381" />
      <rect x="1444" y="180" width="3" style="fill:blue; stroke:none;" rx="1.5" ry="1.5" height="30" />
      <rect x="1441" y="240" width="3" style="fill:blue; stroke:none;" rx="1.5" ry="1.5" height="30" />
      <circle style="fill:blue; stroke:none;" r="3" cx="1447" cy="249" />
      <circle style="fill:blue; stroke:none;" r="3" cx="1447" cy="261" />
    </g>
  </g>
</svg>
