<?xml version="1.0" encoding="UTF-8"?>

<!DOCTYPE svg PUBLIC '-//W3C//DTD SVG 1.0//EN' 'http://www.w3.org/TR/2001/REC-SVG-20010904/DTD/svg10.dtd'>
<svg style="fill-opacity:1; color-rendering:auto; color-interpolation:auto; text-rendering:auto; stroke:black; stroke-linecap:square; stroke-miterlimit:10; shape-rendering:auto; stroke-opacity:1; fill:black; stroke-dasharray:none; font-weight:normal; stroke-width:1; font-family:&apos;Dialog&apos;; font-style:normal; stroke-linejoin:miter; font-size:12; stroke-dashoffset:0; image-rendering:auto;" xmlns="http://www.w3.org/2000/svg" width="1724.0" xmlns:xlink="http://www.w3.org/1999/xlink" height="786.0">
  <!--Generated by the Batik Graphics2D SVG Generator-->
  <defs id="genericDefs" />
  <g>
    <g style="fill:white; stroke:white;">
      <rect x="0" y="0" width="1897" style="stroke:none;" height="845" />
    </g>
    <g style="font-family:sans-serif; font-size:14;">
      <text xml:space="preserve" x="601" y="509" style="stroke:none;">SafingFPorFN</text>
      <text xml:space="preserve" x="322" y="299" style="stroke:none;">PrimarySGFailed</text>
      <text xml:space="preserve" x="594" y="309" style="stroke:none;">PrimarySGSilent</text>
      <text xml:space="preserve" x="1654" y="439" style="stroke:none;">SafeState</text>
      <text xml:space="preserve" x="81" y="299" style="stroke:none;">PrimarySG</text>
      <text xml:space="preserve" x="64" y="779" style="stroke:none;">PrioritySelectors</text>
      <text xml:space="preserve" x="605" y="449" style="stroke:none;">SafingErratic</text>
      <text xml:space="preserve" x="95" y="419" style="stroke:none;">Safing</text>
      <text xml:space="preserve" x="336" y="419" style="stroke:none;">SafingFailed</text>
      <text xml:space="preserve" x="1647" y="279" style="stroke:none;">UnsafeState</text>
      <text xml:space="preserve" x="601" y="189" style="stroke:none;">PrimaryErratic</text>
      <text xml:space="preserve" x="91" y="159" style="stroke:none;">Primary</text>
      <text xml:space="preserve" x="332" y="159" style="stroke:none;">PrimaryFailed</text>
      <text xml:space="preserve" x="85" y="559" style="stroke:none;">SafingSG</text>
      <text xml:space="preserve" x="326" y="559" style="stroke:none;">SafingSGFailed</text>
      <text xml:space="preserve" x="597" y="249" style="stroke:none;">PrimaryFPorFN</text>
      <text xml:space="preserve" x="598" y="569" style="stroke:none;">SafingSGSilent</text>
      <text xml:space="preserve" x="1146" y="219" style="stroke:none;">PrimaryLayerSilent</text>
      <text xml:space="preserve" x="1143" y="289" style="stroke:none;">PrimaryLayerErratic</text>
      <text xml:space="preserve" x="1147" y="549" style="stroke:none;">SafingLayerErratic</text>
      <text xml:space="preserve" x="1150" y="479" style="stroke:none;">SafingLayerSilent</text>
      <text xml:space="preserve" x="604" y="139" style="stroke:none;">PrimarySilent</text>
      <text xml:space="preserve" x="608" y="399" style="stroke:none;">SafingSilent</text>
      <text xml:space="preserve" x="1329" y="439" style="stroke:none;">CheckSafingMRM</text>
      <text xml:space="preserve" x="1291" y="359" style="stroke:none;">CheckNonCatastrophicFailure</text>
      <text xml:space="preserve" x="1303" y="279" style="stroke:none;">CheckCatastrophicFailure</text>
      <text xml:space="preserve" x="746" y="219" style="stroke:none;">CheckPrimaryLayerSilent</text>
      <text xml:space="preserve" x="743" y="289" style="stroke:none;">CheckPrimaryLayerErratic</text>
      <text xml:space="preserve" x="747" y="549" style="stroke:none;">CheckSafingLayerErratic</text>
      <text xml:space="preserve" x="750" y="479" style="stroke:none;">CheckSafingLayerSilent</text>
      <text xml:space="preserve" x="227" y="669" style="stroke:none;">CCF3of4</text>
      <text xml:space="preserve" x="455" y="509" style="stroke:none;">SafingNonSilent</text>
      <text xml:space="preserve" x="227" y="629" style="stroke:none;">CCF2of4</text>
      <text xml:space="preserve" x="227" y="709" style="stroke:none;">CCF4of4</text>
      <text xml:space="preserve" x="451" y="249" style="stroke:none;">PrimaryNonSilent</text>
      <text xml:space="preserve" x="1519" y="444" style="stroke:none;">SafingMRM</text>
      <text xml:space="preserve" x="199" y="304" style="stroke:none;">PrimarySGFailure</text>
      <text xml:space="preserve" x="182" y="784" style="stroke:none;">PrioritySelectorsFailure</text>
      <text xml:space="preserve" x="101" y="680" style="stroke:none;">CCF</text>
      <text xml:space="preserve" x="213" y="424" style="stroke:none;">SafingFailure</text>
      <text xml:space="preserve" x="209" y="164" style="stroke:none;">PrimaryFailure</text>
      <text xml:space="preserve" x="203" y="564" style="stroke:none;">SafingSGFailure</text>
      <text xml:space="preserve" x="434" y="304" style="stroke:none;">PrimarySGFailureType</text>
      <text xml:space="preserve" x="1503" y="364" style="stroke:none;">prebufferedMRM</text>
      <text xml:space="preserve" x="448" y="424" style="stroke:none;">SafingFailureType</text>
      <text xml:space="preserve" x="1494" y="284" style="stroke:none;">CatastrophicFailure</text>
      <text xml:space="preserve" x="444" y="164" style="stroke:none;">PrimaryFailureType</text>
      <text xml:space="preserve" x="438" y="564" style="stroke:none;">SafingSGFailureType</text>
      <text xml:space="preserve" x="944" y="224" style="stroke:none;">PrimaryLayerSilentFailure</text>
      <text xml:space="preserve" x="941" y="294" style="stroke:none;">PrimaryLayerErraticFailure</text>
      <text xml:space="preserve" x="948" y="484" style="stroke:none;">SafingLayerSilentFailure</text>
      <text xml:space="preserve" x="945" y="554" style="stroke:none;">SafingLayerErraticFailure</text>
      <line x1="825" x2="1025" y1="455" style="fill:none;" y2="455" />
      <line x1="825" x2="1025" y1="525" style="fill:none;" y2="525" />
      <line x1="825" x2="1025" y1="265" style="fill:none;" y2="265" />
      <line x1="1025" x2="1186" y1="455" style="fill:none;" y2="455" />
      <polygon style="stroke:none;" points=" 1195 455 1186 451 1186 459 1195 455" />
      <line x1="1195" x2="1186" y1="455" style="fill:none;" y2="455" />
      <line x1="1025" x2="1186" y1="525" style="fill:none;" y2="525" />
      <polygon style="stroke:none;" points=" 1195 525 1186 521 1186 529 1195 525" />
      <line x1="1195" x2="1186" y1="525" style="fill:none;" y2="525" />
      <line x1="1025" x2="1186" y1="265" style="fill:none;" y2="265" />
      <polygon style="stroke:none;" points=" 1195 265 1186 261 1186 269 1195 265" />
      <line x1="1195" x2="1186" y1="265" style="fill:none;" y2="265" />
      <line x1="1025" x2="1186" y1="195" style="fill:none;" y2="195" />
      <polygon style="stroke:none;" points=" 1195 195 1186 191 1186 199 1195 195" />
      <line x1="1195" x2="1186" y1="195" style="fill:none;" y2="195" />
      <line x1="825" x2="1025" y1="195" style="fill:none;" y2="195" />
      <line x1="505" x2="645" y1="485" style="fill:none;" y2="485" />
      <line x1="255" x2="356" y1="275" style="fill:none;" y2="275" />
      <polygon style="stroke:none;" points=" 365 275 356 271 356 279 365 275" />
      <line x1="365" x2="356" y1="275" style="fill:none;" y2="275" />
      <line x1="505" x2="626" y1="281" style="fill:none;" y2="285" />
      <polygon style="stroke:none;" points=" 635 285 626 281 626 289 635 285" />
      <line x1="635" x2="626" y1="285" style="fill:none;" y2="285" />
      <line x1="1555" x2="1666" y1="415" style="fill:none;" y2="415" />
      <polygon style="stroke:none;" points=" 1675 415 1666 411 1666 419 1675 415" />
      <line x1="1675" x2="1666" y1="415" style="fill:none;" y2="415" />
      <line x1="1555" x2="1665" y1="341" style="fill:none;" y2="405" />
      <polygon style="stroke:none;" points=" 1675 410 1669 402 1665 409 1675 410" />
      <line x1="1675" x2="1665" y1="410" style="fill:none;" y2="405" />
      <line x1="505" x2="625" y1="401" style="fill:none;" y2="423" />
      <polygon style="stroke:none;" points=" 635 424 627 419 625 426 635 424" />
      <line x1="635" x2="625" y1="424" style="fill:none;" y2="423" />
      <line x1="255" x2="356" y1="395" style="fill:none;" y2="395" />
      <polygon style="stroke:none;" points=" 365 395 356 391 356 399 365 395" />
      <line x1="365" x2="356" y1="395" style="fill:none;" y2="395" />
      <line x1="1555" x2="1665" y1="329" style="fill:none;" y2="265" />
      <polygon style="stroke:none;" points=" 1675 260 1665 261 1669 268 1675 260" />
      <line x1="1675" x2="1665" y1="260" style="fill:none;" y2="265" />
      <line x1="1555" x2="1666" y1="255" style="fill:none;" y2="255" />
      <polygon style="stroke:none;" points=" 1675 255 1666 251 1666 259 1675 255" />
      <line x1="1675" x2="1666" y1="255" style="fill:none;" y2="255" />
      <line x1="505" x2="625" y1="141" style="fill:none;" y2="163" />
      <polygon style="stroke:none;" points=" 635 164 627 159 625 166 635 164" />
      <line x1="635" x2="625" y1="164" style="fill:none;" y2="163" />
      <line x1="255" x2="356" y1="135" style="fill:none;" y2="135" />
      <polygon style="stroke:none;" points=" 365 135 356 131 356 139 365 135" />
      <line x1="365" x2="356" y1="135" style="fill:none;" y2="135" />
      <line x1="255" x2="356" y1="535" style="fill:none;" y2="535" />
      <polygon style="stroke:none;" points=" 365 535 356 531 356 539 365 535" />
      <line x1="365" x2="356" y1="535" style="fill:none;" y2="535" />
      <line x1="505" x2="645" y1="225" style="fill:none;" y2="225" />
      <line x1="505" x2="626" y1="541" style="fill:none;" y2="545" />
      <polygon style="stroke:none;" points=" 635 545 626 541 626 549 635 545" />
      <line x1="635" x2="626" y1="545" style="fill:none;" y2="545" />
      <line x1="505" x2="625" y1="129" style="fill:none;" y2="115" />
      <polygon style="stroke:none;" points=" 635 115 625 112 626 120 635 115" />
      <line x1="635" x2="625" y1="115" style="fill:none;" y2="115" />
      <line x1="505" x2="625" y1="389" style="fill:none;" y2="375" />
      <polygon style="stroke:none;" points=" 635 375 625 372 626 380 635 375" />
      <line x1="635" x2="625" y1="375" style="fill:none;" y2="375" />
      <line x1="115" x2="255" y1="645" style="fill:none;" y2="645" />
      <line x1="505" x2="505" y1="529" style="fill:none;" y2="485" />
      <line x1="115" x2="255" y1="633" style="fill:none;" y2="605" />
      <line x1="115" x2="255" y1="657" style="fill:none;" y2="685" />
      <line x1="505" x2="505" y1="269" style="fill:none;" y2="225" />
      <line x1="1385" x2="1555" y1="415" style="fill:none;" y2="415" />
      <line x1="115" x2="243" y1="275" style="fill:none;" y2="275" />
      <polygon style="stroke:none;" points=" 252 275 243 271 243 279 252 275" />
      <line x1="252" x2="243" y1="275" style="fill:none;" y2="275" />
      <line x1="115" x2="243" y1="755" style="fill:none;" y2="755" />
      <polygon style="stroke:none;" points=" 252 755 243 751 243 759 252 755" />
      <line x1="252" x2="243" y1="755" style="fill:none;" y2="755" />
      <line x1="115" x2="243" y1="395" style="fill:none;" y2="395" />
      <polygon style="stroke:none;" points=" 252 395 243 391 243 399 252 395" />
      <line x1="252" x2="243" y1="395" style="fill:none;" y2="395" />
      <line x1="115" x2="243" y1="135" style="fill:none;" y2="135" />
      <polygon style="stroke:none;" points=" 252 135 243 131 243 139 252 135" />
      <line x1="252" x2="243" y1="135" style="fill:none;" y2="135" />
      <line x1="115" x2="243" y1="535" style="fill:none;" y2="535" />
      <polygon style="stroke:none;" points=" 252 535 243 531 243 539 252 535" />
      <line x1="252" x2="243" y1="535" style="fill:none;" y2="535" />
      <line x1="375" x2="492" y1="275" style="fill:none;" y2="275" />
      <polygon style="stroke:none;" points=" 501 275 492 271 492 279 501 275" />
      <line x1="501" x2="492" y1="275" style="fill:none;" y2="275" />
      <line x1="1385" x2="1555" y1="335" style="fill:none;" y2="335" />
      <line x1="375" x2="492" y1="395" style="fill:none;" y2="395" />
      <polygon style="stroke:none;" points=" 501 395 492 391 492 399 501 395" />
      <line x1="501" x2="492" y1="395" style="fill:none;" y2="395" />
      <line x1="1385" x2="1555" y1="255" style="fill:none;" y2="255" />
      <line x1="375" x2="492" y1="135" style="fill:none;" y2="135" />
      <polygon style="stroke:none;" points=" 501 135 492 131 492 139 501 135" />
      <line x1="501" x2="492" y1="135" style="fill:none;" y2="135" />
      <line x1="375" x2="492" y1="535" style="fill:none;" y2="535" />
      <polygon style="stroke:none;" points=" 501 535 492 531 492 539 501 535" />
      <line x1="501" x2="492" y1="535" style="fill:none;" y2="535" />
      <circle style="fill:blue; stroke:none;" r="9.5" cx="644.5" cy="484.5" />
      <circle style="fill:blue; stroke:none;" r="9.5" cx="374.5" cy="274.5" />
      <circle style="fill:blue; stroke:none;" r="9.5" cx="644.5" cy="284.5" />
      <circle style="fill:blue; stroke:none;" r="9.5" cx="1684.5" cy="414.5" />
      <circle style="fill:blue; stroke:none;" r="9.5" cx="114.5" cy="274.5" />
      <circle style="fill:blue; stroke:none;" r="9.5" cx="114.5" cy="754.5" />
      <circle style="fill:blue; stroke:none;" r="9.5" cx="644.5" cy="424.5" />
      <circle style="fill:blue; stroke:none;" r="9.5" cx="114.5" cy="394.5" />
      <circle style="fill:blue; stroke:none;" r="9.5" cx="374.5" cy="394.5" />
      <circle style="fill:blue; stroke:none;" r="9.5" cx="1684.5" cy="254.5" />
      <circle style="fill:blue; stroke:none;" r="9.5" cx="644.5" cy="164.5" />
      <circle style="fill:blue; stroke:none;" r="9.5" cx="114.5" cy="134.5" />
      <circle style="fill:blue; stroke:none;" r="9.5" cx="374.5" cy="134.5" />
      <circle style="fill:blue; stroke:none;" r="9.5" cx="114.5" cy="534.5" />
      <circle style="fill:blue; stroke:none;" r="9.5" cx="374.5" cy="534.5" />
      <circle style="fill:blue; stroke:none;" r="9.5" cx="644.5" cy="224.5" />
      <circle style="fill:blue; stroke:none;" r="9.5" cx="644.5" cy="544.5" />
      <circle style="fill:blue; stroke:none;" r="9.5" cx="1204.5" cy="194.5" />
      <circle style="fill:blue; stroke:none;" r="9.5" cx="1204.5" cy="264.5" />
      <circle style="fill:blue; stroke:none;" r="9.5" cx="1204.5" cy="524.5" />
      <circle style="fill:blue; stroke:none;" r="9.5" cx="1204.5" cy="454.5" />
      <circle style="fill:blue; stroke:none;" r="9.5" cx="644.5" cy="114.5" />
      <circle style="fill:blue; stroke:none;" r="9.5" cx="644.5" cy="374.5" />
      <polygon style="fill:red; stroke:none;" points=" 1375 415 1395 405 1395 425" />
      <polygon style="fill:red; stroke:none;" points=" 1375 335 1395 325 1395 345" />
      <polygon style="fill:red; stroke:none;" points=" 1375 255 1395 245 1395 265" />
      <polygon style="fill:red; stroke:none;" points=" 815 195 835 185 835 205" />
      <polygon style="fill:red; stroke:none;" points=" 815 265 835 255 835 275" />
      <polygon style="fill:red; stroke:none;" points=" 815 525 835 515 835 535" />
      <polygon style="fill:red; stroke:none;" points=" 815 455 835 445 835 465" />
      <polygon style="stroke:none;" points=" 265 645 245 635 245 655" />
      <polygon style="stroke:none;" points=" 515 485 495 475 495 495" />
      <polygon style="stroke:none;" points=" 265 605 245 595 245 615" />
      <polygon style="stroke:none;" points=" 265 685 245 675 245 695" />
      <polygon style="stroke:none;" points=" 515 225 495 215 495 235" />
      <rect x="1552" y="400" width="6" style="fill:blue; stroke:none;" rx="3" ry="3" height="30" />
      <rect x="252" y="260" width="6" style="fill:blue; stroke:none;" rx="3" ry="3" height="30" />
      <rect x="252" y="740" width="6" style="fill:blue; stroke:none;" rx="3" ry="3" height="30" />
      <rect x="109" y="624" width="6" style="fill:blue; stroke:none;" rx="3" ry="3" height="42" />
      <circle style="fill:blue; stroke:none;" r="3" cx="118" cy="633" />
      <circle style="fill:blue; stroke:none;" r="3" cx="118" cy="645" />
      <circle style="fill:blue; stroke:none;" r="3" cx="118" cy="657" />
      <rect x="252" y="380" width="6" style="fill:blue; stroke:none;" rx="3" ry="3" height="30" />
      <rect x="252" y="120" width="6" style="fill:blue; stroke:none;" rx="3" ry="3" height="30" />
      <rect x="252" y="520" width="6" style="fill:blue; stroke:none;" rx="3" ry="3" height="30" />
      <rect x="501" y="260" width="3" style="fill:blue; stroke:none;" rx="1.5" ry="1.5" height="30" />
      <circle style="fill:blue; stroke:none;" r="3" cx="507" cy="269" />
      <circle style="fill:blue; stroke:none;" r="3" cx="507" cy="281" />
      <rect x="1551" y="320" width="3" style="fill:blue; stroke:none;" rx="1.5" ry="1.5" height="30" />
      <circle style="fill:blue; stroke:none;" r="3" cx="1557" cy="329" />
      <circle style="fill:blue; stroke:none;" r="3" cx="1557" cy="341" />
      <rect x="501" y="380" width="3" style="fill:blue; stroke:none;" rx="1.5" ry="1.5" height="30" />
      <circle style="fill:blue; stroke:none;" r="3" cx="507" cy="389" />
      <circle style="fill:blue; stroke:none;" r="3" cx="507" cy="401" />
      <rect x="1554" y="240" width="3" style="fill:blue; stroke:none;" rx="1.5" ry="1.5" height="30" />
      <rect x="501" y="120" width="3" style="fill:blue; stroke:none;" rx="1.5" ry="1.5" height="30" />
      <circle style="fill:blue; stroke:none;" r="3" cx="507" cy="129" />
      <circle style="fill:blue; stroke:none;" r="3" cx="507" cy="141" />
      <rect x="501" y="520" width="3" style="fill:blue; stroke:none;" rx="1.5" ry="1.5" height="30" />
      <circle style="fill:blue; stroke:none;" r="3" cx="507" cy="529" />
      <circle style="fill:blue; stroke:none;" r="3" cx="507" cy="541" />
      <rect x="1024" y="180" width="3" style="fill:blue; stroke:none;" rx="1.5" ry="1.5" height="30" />
      <rect x="1024" y="250" width="3" style="fill:blue; stroke:none;" rx="1.5" ry="1.5" height="30" />
      <rect x="1024" y="440" width="3" style="fill:blue; stroke:none;" rx="1.5" ry="1.5" height="30" />
      <rect x="1024" y="510" width="3" style="fill:blue; stroke:none;" rx="1.5" ry="1.5" height="30" />
    </g>
  </g>
</svg>
