<?xml version="1.0" encoding="UTF-8"?>

<!DOCTYPE svg PUBLIC '-//W3C//DTD SVG 1.0//EN' 'http://www.w3.org/TR/2001/REC-SVG-20010904/DTD/svg10.dtd'>
<svg style="fill-opacity:1; color-rendering:auto; color-interpolation:auto; text-rendering:auto; stroke:black; stroke-linecap:square; stroke-miterlimit:10; shape-rendering:auto; stroke-opacity:1; fill:black; stroke-dasharray:none; font-weight:normal; stroke-width:1; font-family:&apos;Dialog&apos;; font-style:normal; stroke-linejoin:miter; font-size:12; stroke-dashoffset:0; image-rendering:auto;" xmlns="http://www.w3.org/2000/svg" width="1564.0" xmlns:xlink="http://www.w3.org/1999/xlink" height="686.0">
  <!--Generated by the Batik Graphics2D SVG Generator-->
  <defs id="genericDefs" />
  <g>
    <g style="fill:white; stroke:white;">
      <rect x="0" y="0" width="1897" style="stroke:none;" height="845" />
    </g>
    <g style="font-family:sans-serif; font-size:14;">
      <text xml:space="preserve" x="144" y="149" style="stroke:none;">SAEL2</text>
      <text xml:space="preserve" x="139" y="259" style="stroke:none;">Fallback</text>
      <text xml:space="preserve" x="132" y="429" style="stroke:none;">Monitoring</text>
      <text xml:space="preserve" x="353" y="429" style="stroke:none;">MonitoringFailed</text>
      <text xml:space="preserve" x="625" y="479" style="stroke:none;">MonitoringSilent</text>
      <text xml:space="preserve" x="1019" y="339" style="stroke:none;">SAEL2FPorFN</text>
      <text xml:space="preserve" x="138" y="679" style="stroke:none;">Decision</text>
      <text xml:space="preserve" x="1494" y="399" style="stroke:none;">SafeState</text>
      <text xml:space="preserve" x="1487" y="239" style="stroke:none;">UnsafeState</text>
      <text xml:space="preserve" x="1014" y="439" style="stroke:none;">FallbackFPorFN</text>
      <text xml:space="preserve" x="633" y="179" style="stroke:none;">SAEL2Erratic</text>
      <text xml:space="preserve" x="628" y="289" style="stroke:none;">FallbackErratic</text>
      <text xml:space="preserve" x="364" y="149" style="stroke:none;">SAEL2Failed</text>
      <text xml:space="preserve" x="359" y="259" style="stroke:none;">FallbackFailed</text>
      <text xml:space="preserve" x="622" y="389" style="stroke:none;">MonitoringErratic</text>
      <text xml:space="preserve" x="636" y="119" style="stroke:none;">SAEL2Silent</text>
      <text xml:space="preserve" x="631" y="229" style="stroke:none;">FallbackSilent</text>
      <text xml:space="preserve" x="1131" y="319" style="stroke:none;">CheckNonCatastrophicFailure</text>
      <text xml:space="preserve" x="1168" y="399" style="stroke:none;">CheckSAEL2MRM</text>
      <text xml:space="preserve" x="1163" y="479" style="stroke:none;">CheckFallbackMRM</text>
      <text xml:space="preserve" x="1143" y="239" style="stroke:none;">CheckCatastrophicFailure</text>
      <text xml:space="preserve" x="247" y="539" style="stroke:none;">CCF2of3</text>
      <text xml:space="preserve" x="247" y="609" style="stroke:none;">CCF3of3</text>
      <text xml:space="preserve" x="884" y="339" style="stroke:none;">SAEL2NonSilent</text>
      <text xml:space="preserve" x="879" y="439" style="stroke:none;">FallbackNonSilent</text>
      <text xml:space="preserve" x="857" y="389" style="stroke:none;">SAEL2FallbackNonSilent</text>
      <text xml:space="preserve" x="232" y="154" style="stroke:none;">SAEL2Failure</text>
      <text xml:space="preserve" x="227" y="264" style="stroke:none;">FallbackFailure</text>
      <text xml:space="preserve" x="220" y="434" style="stroke:none;">MonitoringFailure</text>
      <text xml:space="preserve" x="151" y="584" style="stroke:none;">CCF</text>
      <text xml:space="preserve" x="226" y="684" style="stroke:none;">DecisionFailure</text>
      <text xml:space="preserve" x="1353" y="484" style="stroke:none;">FallbackMRM</text>
      <text xml:space="preserve" x="1358" y="404" style="stroke:none;">SAEL2MRM</text>
      <text xml:space="preserve" x="475" y="434" style="stroke:none;">MonitoringFailureType</text>
      <text xml:space="preserve" x="1343" y="324" style="stroke:none;">prebufferedMRM</text>
      <text xml:space="preserve" x="1334" y="244" style="stroke:none;">CatastrophicFailure</text>
      <text xml:space="preserve" x="486" y="154" style="stroke:none;">SAEL2FailureType</text>
      <text xml:space="preserve" x="481" y="264" style="stroke:none;">FallbackFailureType</text>
      <text xml:space="preserve" x="739" y="400" style="stroke:none;">ValidationError</text>
      <line x1="275" x2="386" y1="405" style="fill:none;" y2="405" />
      <polygon style="stroke:none;" points=" 395 405 386 401 386 409 395 405" />
      <line x1="395" x2="386" y1="405" style="fill:none;" y2="405" />
      <line x1="545" x2="655" y1="411" style="fill:none;" y2="449" />
      <polygon style="stroke:none;" points=" 665 452 657 445 655 453 665 452" />
      <line x1="665" x2="655" y1="452" style="fill:none;" y2="449" />
      <line x1="935" x2="1065" y1="315" style="fill:none;" y2="315" />
      <line x1="935" x2="1065" y1="365" style="fill:none;" y2="315" />
      <line x1="1395" x2="1505" y1="455" style="fill:none;" y2="387" />
      <polygon style="stroke:none;" points=" 1515 381 1505 383 1509 389 1515 381" />
      <line x1="1515" x2="1505" y1="381" style="fill:none;" y2="387" />
      <line x1="1395" x2="1506" y1="375" style="fill:none;" y2="375" />
      <polygon style="stroke:none;" points=" 1515 375 1506 371 1506 379 1515 375" />
      <line x1="1515" x2="1506" y1="375" style="fill:none;" y2="375" />
      <line x1="1395" x2="1505" y1="301" style="fill:none;" y2="365" />
      <polygon style="stroke:none;" points=" 1515 370 1509 362 1505 369 1515 370" />
      <line x1="1515" x2="1505" y1="370" style="fill:none;" y2="365" />
      <line x1="1395" x2="1505" y1="289" style="fill:none;" y2="225" />
      <polygon style="stroke:none;" points=" 1515 220 1505 221 1509 228 1515 220" />
      <line x1="1515" x2="1505" y1="220" style="fill:none;" y2="225" />
      <line x1="1395" x2="1506" y1="215" style="fill:none;" y2="215" />
      <polygon style="stroke:none;" points=" 1515 215 1506 211 1506 219 1515 215" />
      <line x1="1515" x2="1506" y1="215" style="fill:none;" y2="215" />
      <line x1="935" x2="1065" y1="415" style="fill:none;" y2="415" />
      <line x1="935" x2="1065" y1="365" style="fill:none;" y2="415" />
      <line x1="545" x2="655" y1="131" style="fill:none;" y2="153" />
      <polygon style="stroke:none;" points=" 665 154 657 149 655 156 665 154" />
      <line x1="665" x2="655" y1="154" style="fill:none;" y2="153" />
      <line x1="545" x2="655" y1="241" style="fill:none;" y2="263" />
      <polygon style="stroke:none;" points=" 665 264 657 259 655 266 665 264" />
      <line x1="665" x2="655" y1="264" style="fill:none;" y2="263" />
      <line x1="275" x2="386" y1="125" style="fill:none;" y2="125" />
      <polygon style="stroke:none;" points=" 395 125 386 121 386 129 395 125" />
      <line x1="395" x2="386" y1="125" style="fill:none;" y2="125" />
      <line x1="275" x2="386" y1="235" style="fill:none;" y2="235" />
      <polygon style="stroke:none;" points=" 395 235 386 231 386 239 395 235" />
      <line x1="395" x2="386" y1="235" style="fill:none;" y2="235" />
      <line x1="545" x2="655" y1="399" style="fill:none;" y2="369" />
      <polygon style="stroke:none;" points=" 665 367 655 366 657 373 665 367" />
      <line x1="665" x2="655" y1="367" style="fill:none;" y2="369" />
      <line x1="545" x2="655" y1="119" style="fill:none;" y2="97" />
      <polygon style="stroke:none;" points=" 665 96 655 94 657 101 665 96" />
      <line x1="665" x2="655" y1="96" style="fill:none;" y2="97" />
      <line x1="545" x2="655" y1="229" style="fill:none;" y2="207" />
      <polygon style="stroke:none;" points=" 665 206 655 204 657 211 665 206" />
      <line x1="665" x2="655" y1="206" style="fill:none;" y2="207" />
      <line x1="165" x2="275" y1="549" style="fill:none;" y2="515" />
      <line x1="165" x2="275" y1="561" style="fill:none;" y2="585" />
      <line x1="785" x2="935" y1="353" style="fill:none;" y2="315" />
      <line x1="785" x2="935" y1="377" style="fill:none;" y2="415" />
      <line x1="785" x2="935" y1="365" style="fill:none;" y2="365" />
      <line x1="165" x2="263" y1="125" style="fill:none;" y2="125" />
      <polygon style="stroke:none;" points=" 272 125 263 121 263 129 272 125" />
      <line x1="272" x2="263" y1="125" style="fill:none;" y2="125" />
      <line x1="165" x2="263" y1="235" style="fill:none;" y2="235" />
      <polygon style="stroke:none;" points=" 272 235 263 231 263 239 272 235" />
      <line x1="272" x2="263" y1="235" style="fill:none;" y2="235" />
      <line x1="165" x2="263" y1="405" style="fill:none;" y2="405" />
      <polygon style="stroke:none;" points=" 272 405 263 401 263 409 272 405" />
      <line x1="272" x2="263" y1="405" style="fill:none;" y2="405" />
      <line x1="165" x2="263" y1="655" style="fill:none;" y2="655" />
      <polygon style="stroke:none;" points=" 272 655 263 651 263 659 272 655" />
      <line x1="272" x2="263" y1="655" style="fill:none;" y2="655" />
      <line x1="1225" x2="1395" y1="455" style="fill:none;" y2="455" />
      <line x1="1225" x2="1395" y1="375" style="fill:none;" y2="375" />
      <line x1="405" x2="532" y1="405" style="fill:none;" y2="405" />
      <polygon style="stroke:none;" points=" 541 405 532 401 532 409 541 405" />
      <line x1="541" x2="532" y1="405" style="fill:none;" y2="405" />
      <line x1="1225" x2="1395" y1="295" style="fill:none;" y2="295" />
      <line x1="1225" x2="1395" y1="215" style="fill:none;" y2="215" />
      <line x1="405" x2="532" y1="125" style="fill:none;" y2="125" />
      <polygon style="stroke:none;" points=" 541 125 532 121 532 129 541 125" />
      <line x1="541" x2="532" y1="125" style="fill:none;" y2="125" />
      <line x1="405" x2="532" y1="235" style="fill:none;" y2="235" />
      <polygon style="stroke:none;" points=" 541 235 532 231 532 239 541 235" />
      <line x1="541" x2="532" y1="235" style="fill:none;" y2="235" />
      <line x1="675" x2="772" y1="365" style="fill:none;" y2="365" />
      <polygon style="stroke:none;" points=" 781 365 772 361 772 369 781 365" />
      <line x1="781" x2="772" y1="365" style="fill:none;" y2="365" />
      <circle style="fill:blue; stroke:none;" r="9.5" cx="164.5" cy="124.5" />
      <circle style="fill:blue; stroke:none;" r="9.5" cx="164.5" cy="234.5" />
      <circle style="fill:blue; stroke:none;" r="9.5" cx="164.5" cy="404.5" />
      <circle style="fill:blue; stroke:none;" r="9.5" cx="404.5" cy="404.5" />
      <circle style="fill:blue; stroke:none;" r="9.5" cx="674.5" cy="454.5" />
      <circle style="fill:blue; stroke:none;" r="9.5" cx="1064.5" cy="314.5" />
      <circle style="fill:blue; stroke:none;" r="9.5" cx="164.5" cy="654.5" />
      <circle style="fill:blue; stroke:none;" r="9.5" cx="1524.5" cy="374.5" />
      <circle style="fill:blue; stroke:none;" r="9.5" cx="1524.5" cy="214.5" />
      <circle style="fill:blue; stroke:none;" r="9.5" cx="1064.5" cy="414.5" />
      <circle style="fill:blue; stroke:none;" r="9.5" cx="674.5" cy="154.5" />
      <circle style="fill:blue; stroke:none;" r="9.5" cx="674.5" cy="264.5" />
      <circle style="fill:blue; stroke:none;" r="9.5" cx="404.5" cy="124.5" />
      <circle style="fill:blue; stroke:none;" r="9.5" cx="404.5" cy="234.5" />
      <circle style="fill:blue; stroke:none;" r="9.5" cx="674.5" cy="364.5" />
      <circle style="fill:blue; stroke:none;" r="9.5" cx="674.5" cy="94.5" />
      <circle style="fill:blue; stroke:none;" r="9.5" cx="674.5" cy="204.5" />
      <polygon style="fill:red; stroke:none;" points=" 1215 295 1235 285 1235 305" />
      <polygon style="fill:red; stroke:none;" points=" 1215 375 1235 365 1235 385" />
      <polygon style="fill:red; stroke:none;" points=" 1215 455 1235 445 1235 465" />
      <polygon style="fill:red; stroke:none;" points=" 1215 215 1235 205 1235 225" />
      <polygon style="stroke:none;" points=" 285 515 265 505 265 525" />
      <polygon style="stroke:none;" points=" 285 585 265 575 265 595" />
      <polygon style="stroke:none;" points=" 945 315 925 305 925 325" />
      <polygon style="stroke:none;" points=" 945 415 925 405 925 425" />
      <polygon style="stroke:none;" points=" 945 365 925 355 925 375" />
      <rect x="272" y="110" width="6" style="fill:blue; stroke:none;" rx="3" ry="3" height="30" />
      <rect x="272" y="220" width="6" style="fill:blue; stroke:none;" rx="3" ry="3" height="30" />
      <rect x="272" y="390" width="6" style="fill:blue; stroke:none;" rx="3" ry="3" height="30" />
      <rect x="159" y="540" width="6" style="fill:blue; stroke:none;" rx="3" ry="3" height="30" />
      <circle style="fill:blue; stroke:none;" r="3" cx="168" cy="549" />
      <circle style="fill:blue; stroke:none;" r="3" cx="168" cy="561" />
      <rect x="272" y="640" width="6" style="fill:blue; stroke:none;" rx="3" ry="3" height="30" />
      <rect x="1392" y="440" width="6" style="fill:blue; stroke:none;" rx="3" ry="3" height="30" />
      <rect x="1392" y="360" width="6" style="fill:blue; stroke:none;" rx="3" ry="3" height="30" />
      <rect x="541" y="390" width="3" style="fill:blue; stroke:none;" rx="1.5" ry="1.5" height="30" />
      <circle style="fill:blue; stroke:none;" r="3" cx="547" cy="399" />
      <circle style="fill:blue; stroke:none;" r="3" cx="547" cy="411" />
      <rect x="1391" y="280" width="3" style="fill:blue; stroke:none;" rx="1.5" ry="1.5" height="30" />
      <circle style="fill:blue; stroke:none;" r="3" cx="1397" cy="289" />
      <circle style="fill:blue; stroke:none;" r="3" cx="1397" cy="301" />
      <rect x="1394" y="200" width="3" style="fill:blue; stroke:none;" rx="1.5" ry="1.5" height="30" />
      <rect x="541" y="110" width="3" style="fill:blue; stroke:none;" rx="1.5" ry="1.5" height="30" />
      <circle style="fill:blue; stroke:none;" r="3" cx="547" cy="119" />
      <circle style="fill:blue; stroke:none;" r="3" cx="547" cy="131" />
      <rect x="541" y="220" width="3" style="fill:blue; stroke:none;" rx="1.5" ry="1.5" height="30" />
      <circle style="fill:blue; stroke:none;" r="3" cx="547" cy="229" />
      <circle style="fill:blue; stroke:none;" r="3" cx="547" cy="241" />
      <rect x="781" y="344" width="3" style="fill:blue; stroke:none;" rx="1.5" ry="1.5" height="42" />
      <circle style="fill:blue; stroke:none;" r="3" cx="787" cy="353" />
      <circle style="fill:blue; stroke:none;" r="3" cx="787" cy="365" />
      <circle style="fill:blue; stroke:none;" r="3" cx="787" cy="377" />
    </g>
  </g>
</svg>
